<?xml version="1.0" encoding="UTF-8" standalone="no"?>
<svg
   xmlns="http://www.w3.org/2000/svg"
   xmlns:svg="http://www.w3.org/2000/svg"
   width="48" height="48" viewBox="0 0 48 48">
<g id="group">
<ellipse
   style="display:inline;fill-opacity:1;stroke:none"
   cx="19.918585" cy="23.044491" rx="2.309401" ry="2.5"
   transform="matrix(0.86602539,0.5,0,1,0,0)" />
<ellipse
   style="display:inline;fill-opacity:1;stroke:none"
   cx="13.856406" cy="16.818008" rx="2.309401" ry="2.5"
   transform="matrix(0.86602539,0.5,0,1,0,0)" />
<ellipse
   style="display:inline;fill-opacity:1;stroke:none"
   cx="38.703938" cy="47.081047" rx="2.309401" ry="2.5"
   transform="matrix(0.86602539,-0.5,0,1,0,0)" />
<ellipse
   style="display:inline;fill-opacity:1;stroke:none"
   cx="44.167297" cy="42.587429" rx="2.309401" ry="2.5"
   transform="matrix(0.86602539,-0.5,0,1,0,0)" />
<ellipse
   style="display:inline;fill-opacity:1;stroke:none"
   cx="32.908966" cy="52.700695" rx="2.309401" ry="2.5"
   transform="matrix(0.86602539,-0.5,0,1,0,0)" />
<path
   style="display:inline;fill:none;stroke:currentColor;stroke-width:1.25px;stroke-linecap:round;stroke-linejoin:round;stroke-opacity:1"
   d="m 24,4 -18.75,8.75 18.75,8.75 18.75,-8.75 z" />
<path
   style="display:inline;fill:none;stroke:currentColor;stroke-width:1.25px;stroke-linecap:round;stroke-linejoin:round;stroke-opacity:1"
   d="m 5.25,12.75 v 21.25 l 18.75,10 18.75,-10 v -21.25" />
<path
   style="display:inline;fill:none;stroke:currentColor;stroke-width:1.25px;stroke-linecap:round;stroke-linejoin:round;stroke-opacity:1"
   d="m 24,21.5 v 22.5" />
<ellipse
   style="display:inline;fill-opacity:1;stroke:none;stroke-width:0.110485;stroke-linecap:round;stroke-linejoin:round;stroke-dasharray:none"
   cx="24" cy="12.75" rx="3.125" ry="1.5625" />
</g>
</svg>
