<?xml version="1.0" encoding="UTF-8" standalone="no"?>
<svg width="48" height="48" viewBox="0 0 48 48"
   version="1.1" xmlns="http://www.w3.org/2000/svg" xmlns:svg="http://www.w3.org/2000/svg">
   <circle fill="#ffffff" cx="8" cy="8" r="7" />
   <circle fill="#ffffff" cx="40" cy="40" r="7" />
<path fill="#ffffff"
   d="M 26.947266 2.5371094 C 26.18307 2.5464136 25.425924 2.5729352 24.681641 2.6113281 C 18.72737 2.9184728 13.574219 4.0449219 13.574219 4.0449219 L 14.425781 7.9550781 C 14.425781 7.9550781 19.319455 6.8927508 24.888672 6.6054688 C 27.67328 6.4618278 30.613029 6.5202572 33.09375 6.9648438 C 35.574471 7.4094302 37.518367 8.2634766 38.533203 9.359375 C 39.874396 10.807698 40.75746 13.430441 40.773438 16.064453 C 40.789417 18.698465 39.94261 21.229266 38.585938 22.585938 C 37.200323 23.971553 35.487657 24.336857 33.048828 24.128906 C 30.61 23.920955 27.647029 23.030698 24.589844 22.087891 C 21.532659 21.145084 18.380772 20.150171 15.291016 19.886719 C 12.201259 19.623266 8.9715507 20.200325 6.5859375 22.585938 C 4.1709209 25.000954 3.2256494 28.50493 3.2578125 31.9375 C 3.2899755 35.37007 4.2929169 38.839574 6.5058594 41.328125 C 9.2847881 44.453152 13.973772 44.634236 17.939453 44.599609 C 20.712242 44.575396 23.15161 44.284396 24.412109 44.107422 C 24.323744 45.435331 23.921075 46.764012 23.185547 47.992188 L 37.417969 39.871094 L 21.294922 36.953125 C 22.381943 37.857324 23.194044 38.960912 23.720703 40.164062 C 22.538163 40.32557 20.357785 40.578187 17.904297 40.599609 C 14.31788 40.630919 10.506755 39.810605 9.4941406 38.671875 C 8.1630134 37.174964 7.280486 34.528632 7.2558594 31.900391 C 7.2312324 29.272148 8.0578507 26.770275 9.4140625 25.414062 C 10.799678 24.028448 12.512343 23.663143 14.951172 23.871094 C 17.39 24.079045 20.352971 24.969302 23.410156 25.912109 C 26.467341 26.854916 29.619228 27.849829 32.708984 28.113281 C 35.798741 28.376734 39.02845 27.799676 41.414062 25.414062 C 43.828619 22.999507 44.794335 19.485885 44.773438 16.041016 C 44.752541 12.596145 43.749329 9.1054792 41.466797 6.640625 C 39.528659 4.5476741 36.74678 3.5556657 33.798828 3.0273438 C 32.324853 2.7631827 30.790438 2.6219228 29.251953 2.5644531 C 28.482711 2.5357182 27.711461 2.5278051 26.947266 2.5371094 z " />
   <circle fill="#2288dd" cx="8" cy="8" r="6" />
   <circle fill="#2288dd" cx="40" cy="40" r="6" />
<path fill="#11446e"
   d="m 27.46875,3.6347656 -0.541016,0.00781 -0.04297,0.00195 0.04687,1.9999999 0.03516,-0.00195 0.517578,-0.00781 h 0.519531 l 0.519531,0.00391 0.517579,0.011719 0.515625,0.017578 0.513671,0.023437 0.509766,0.03125 0.248047,0.019531 0.154297,-1.9941406 -0.263672,-0.019531 -0.539063,-0.033203 -0.541015,-0.027344 -0.542969,-0.017578 -0.542969,-0.011719 -0.542968,-0.00391 z m -2.615234,0.087891 c -1.3535,0.075879 -2.701244,0.195829 -4.042969,0.3515624 L 21.041016,6.0625 c 1.307075,-0.1517117 2.614801,-0.2703642 3.923828,-0.34375 z m 8.185546,0.2519531 -0.292968,1.9785156 c 1.239843,0.1828459 2.449099,0.454509 3.580078,0.8808594 l 0.07813,0.029297 0.724609,-1.8652343 -0.0918,-0.035156 -0.0039,-0.00195 C 35.72454,4.4676046 34.374383,4.1715357 33.039062,3.9746094 Z m -14.234375,0.3613281 -0.09375,0.011719 -0.753906,0.1132813 -0.6875,0.1074219 -0.002,0.00195 c -0.819641,0.1347813 -1.64456,0.2795748 -2.470703,0.4511719 l 0.40625,1.9570312 c 0.784081,-0.1628605 1.579867,-0.3015112 2.382812,-0.4335937 l 0.0059,-0.00195 0.667969,-0.1054687 0.736328,-0.109375 0.08398,-0.011719 z m 20.28125,1.6328125 -1.060546,1.6953125 0.04687,0.029297 0.15039,0.099609 0.146485,0.1015625 L 38.511719,8 l 0.136718,0.1074219 0.132813,0.109375 0.128906,0.1113281 0.123047,0.1132813 0.117188,0.1171875 0.115234,0.1191406 0.144531,0.1640625 0.142578,0.1699219 0.138672,0.1738281 0.134766,0.1816406 0.128906,0.1875 0.126953,0.1933594 0.121094,0.1972656 0.119141,0.2031255 0.03125,0.05859 1.755859,-0.9589841 -0.04492,-0.080078 -0.144531,-0.25 L 41.769531,8.6738281 41.613281,8.4355469 41.449219,8.2011719 41.28125,7.9726562 41.105469,7.75 40.923828,7.53125 40.734375,7.3222656 40.578125,7.15625 40.416016,6.9960937 40.248047,6.8417969 40.076172,6.6914062 39.900391,6.546875 39.720703,6.40625 39.535156,6.2695312 39.345703,6.1367187 39.152344,6.0097656 Z m 3.892579,5.261719 -1.890625,0.654297 0.01953,0.05469 0.07813,0.242188 0.07422,0.24414 0.06836,0.248047 0.0625,0.25 0.05859,0.253906 0.05469,0.253907 0.04883,0.257812 0.04492,0.259766 0.03906,0.259765 0.0332,0.261719 0.0293,0.263672 0.02539,0.265625 0.01758,0.263672 0.01563,0.267578 1.996094,-0.107422 -0.01563,-0.285156 -0.02148,-0.302734 -0.02734,-0.302735 -0.0332,-0.302734 -0.03906,-0.298828 -0.04492,-0.298828 -0.05078,-0.298829 -0.05664,-0.294921 -0.0625,-0.294922 -0.06836,-0.292969 -0.07422,-0.289063 -0.07813,-0.289062 -0.08594,-0.285156 -0.08984,-0.28125 z m -1.261719,6.146484 -0.02734,0.269531 -0.03125,0.259766 -0.03516,0.257812 -0.04297,0.25586 -0.04492,0.255859 -0.05273,0.251953 -0.05469,0.248047 -0.0625,0.246094 -0.06641,0.244141 -0.07031,0.240234 -0.07617,0.236328 -0.08203,0.232422 -0.08594,0.228516 -0.08984,0.224609 -0.05078,0.117187 1.833984,0.796875 0.06055,-0.140625 0.109375,-0.271484 0.103516,-0.273437 0.09766,-0.279297 0.08984,-0.279297 0.08398,-0.285156 0.07813,-0.285157 0.07227,-0.289062 0.06641,-0.291016 0.05859,-0.292969 0.05469,-0.294921 0.04687,-0.296875 0.04297,-0.298829 0.03516,-0.298828 0.0293,-0.289062 z m -27.380859,3.453125 -0.05274,2 0.04102,0.002 -0.0078,-0.002 c 0.23846,0.0085 0.478376,0.02446 0.71875,0.04492 0.998958,0.08595 2.003705,0.262062 3.009766,0.488281 l 0.439453,-1.951172 c -1.065717,-0.239633 -2.159252,-0.433101 -3.277344,-0.529297 -0.271112,-0.02311 -0.545733,-0.04095 -0.820312,-0.05078 h -0.0039 z m -2.166016,0.105469 -0.175781,0.02539 -0.257813,0.04492 -0.257812,0.05078 -0.25586,0.05664 -0.251953,0.06445 -0.251953,0.07227 -0.25,0.08008 -0.246094,0.08594 -0.2441404,0.0957 -0.2421875,0.101562 -0.2402343,0.111328 -0.2363282,0.117188 -0.2324218,0.126953 -0.2304688,0.136719 -0.2265625,0.142578 -0.2226562,0.152344 -0.21875,0.162109 -0.09375,0.07227 1.2382812,1.570312 0.066406,-0.05078 0.1640625,-0.121094 0.1660156,-0.113281 0.1699219,-0.109375 0.1718752,-0.09961 0.175781,-0.0957 0.177734,-0.08984 0.179688,-0.08203 0.183594,-0.07813 0.185547,-0.07227 0.189453,-0.06641 0.193359,-0.06055 0.195313,-0.05664 0.199218,-0.05078 0.201172,-0.04492 0.205078,-0.04102 0.208985,-0.03516 0.15039,-0.02148 z m 8.296875,0.974609 -0.525391,1.929688 c 1.263588,0.343293 2.526615,0.73439 3.802735,1.126953 l 0.58789,-1.910156 c -1.272452,-0.391435 -2.555283,-0.790595 -3.865234,-1.146485 z m 19.507812,0.578125 -0.109375,0.146485 -0.136718,0.173828 -0.140625,0.167968 -0.144532,0.160157 -0.15039,0.15625 -0.154297,0.148437 -0.158203,0.142578 -0.158203,0.134766 -0.16211,0.126953 -0.164062,0.121094 -0.166016,0.113281 -0.169922,0.109375 -0.171875,0.09961 -0.175781,0.0957 -0.177734,0.08984 -0.179688,0.08203 -0.152344,0.06445 0.779297,1.841797 0.181641,-0.07617 0.240234,-0.111328 0.236328,-0.117188 0.232422,-0.126953 0.230469,-0.136719 0.226562,-0.142578 0.222657,-0.152344 0.21875,-0.162109 0.214843,-0.169922 0.212891,-0.177734 0.205078,-0.1875 0.203125,-0.195313 0.197266,-0.205078 0.191406,-0.210937 0.183594,-0.21875 0.177734,-0.22461 0.126953,-0.171875 z m -13.734375,1.150391 -0.576172,1.914062 c 0.495422,0.149119 0.991874,0.293958 1.490235,0.433594 h 0.002 l 0.572266,0.158203 0.572265,0.150391 0.570313,0.142578 0.568359,0.132812 0.162109,0.03516 0.425782,-1.953125 -0.146485,-0.0332 -0.539062,-0.125 -0.544922,-0.136719 -0.548828,-0.144531 -0.554688,-0.152344 -0.0039,-0.002 C 27.204962,23.922815 26.722206,23.783742 26.240234,23.638672 Z M 6.4648437,24.259766 6.375,24.380859 l -0.1621094,0.234375 -0.15625,0.240235 -0.1484375,0.246093 -0.140625,0.25 -0.1367187,0.25586 -0.1269532,0.257812 -0.1230468,0.263672 -0.1132813,0.265625 -0.109375,0.271485 -0.1015625,0.273437 -0.097656,0.277344 -0.087891,0.279297 -0.083984,0.283203 -0.078125,0.285156 -0.041016,0.173828 1.9414063,0.478516 0.037109,-0.152344 0.066406,-0.242187 0.070312,-0.238282 0.074219,-0.236328 0.080078,-0.232422 0.085937,-0.226562 0.089844,-0.22461 0.09375,-0.21875 0.099609,-0.216796 L 7.4121094,26.519531 7.5214844,26.3125 7.6347656,26.113281 7.7519531,25.917969 7.875,25.726562 l 0.1269531,-0.183593 0.072266,-0.0957 z m 25.4589843,0.74414 -0.287109,1.980469 c 0.648395,0.09391 1.307439,0.159445 1.974609,0.183594 h 0.002 c 0.268066,0.0096 0.537521,0.01143 0.808594,0.0059 h 0.0039 l 0.263672,-0.0078 0.265625,-0.01367 0.263672,-0.01953 0.263672,-0.02539 0.261719,-0.03125 0.166015,-0.02344 -0.287109,-1.978515 -0.140625,0.01953 -0.214844,0.02539 -0.216797,0.02148 -0.220703,0.01563 -0.222656,0.01172 -0.226563,0.0078 c -0.230646,0.0047 -0.463842,0.0025 -0.697265,-0.0059 -0.583073,-0.0211 -1.170298,-0.08064 -1.759766,-0.166016 z m -27.6074218,5.347656 -0.00586,0.07031 -0.023437,0.300781 -0.017578,0.302735 -0.011719,0.300781 -0.00586,0.302734 v 0.304688 l 0.00586,0.302734 0.011719,0.302734 0.015625,0.302735 0.023437,0.302734 0.027344,0.300781 0.035156,0.300782 0.039063,0.300781 0.044922,0.296875 L 4.5,34.601562 6.4707031,34.263672 6.4296875,34.025391 6.390625,33.765625 6.3554687,33.503906 6.3261719,33.240234 6.3007812,32.976562 6.28125,32.710937 6.2675781,32.445312 6.2558594,32.179687 6.2519531,31.916016 v -0.265625 l 0.00586,-0.265625 0.00977,-0.263672 0.015625,-0.263672 0.019531,-0.261719 0.00586,-0.05078 z m 2.6035157,5.69336 -1.890625,0.65039 0.085937,0.251954 0.1015625,0.277343 0.1074218,0.273438 0.1132813,0.269531 0.1191406,0.267578 0.125,0.261719 0.1308594,0.257812 0.1367187,0.25586 0.1425782,0.25 0.1464843,0.24414 0.1542969,0.240235 0.1601563,0.236328 0.1660156,0.230469 0.1738281,0.224609 0.1777344,0.21875 0.052734,0.06055 1.5117187,-1.310547 -0.033203,-0.03906 L 8.4609375,38.994141 8.3242188,38.816406 8.1914063,38.632812 8.0625,38.443359 7.9375,38.248047 7.8164062,38.048828 7.6992187,37.841797 7.5859375,37.632812 7.4785156,37.417969 7.3730469,37.197266 7.2734375,36.974609 7.1777344,36.746094 7.0878906,36.513672 7,36.277344 Z m 2.9941406,4.199219 -0.984375,1.740234 c 0.7367212,0.416981 1.5099925,0.707391 2.2753905,0.929687 l 0.0078,0.002 0.353515,0.09766 0.365235,0.0918 0.371093,0.08203 0.375,0.07617 0.353516,0.06445 0.353516,-1.96875 -0.332032,-0.06055 -0.333984,-0.06641 -0.326172,-0.07422 -0.320312,-0.07813 -0.308594,-0.08594 c -0.662267,-0.192344 -1.290194,-0.433374 -1.8496095,-0.75 z m 15.1015625,0.90039 c -0.456659,0.06786 -0.917349,0.12792 -1.380859,0.183594 l 0.0059,-0.002 -0.533203,0.06055 -0.570313,0.06055 -0.605468,0.05664 -0.640625,0.05273 -0.173829,0.01172 0.138672,1.994141 0.185547,-0.01172 0.664063,-0.05469 0.628906,-0.05859 0.589844,-0.0625 0.546875,-0.0625 h 0.002 c 0.476895,-0.05728 0.955308,-0.120038 1.435547,-0.191406 z m -9.738281,0.447266 -0.169922,1.992187 c 0.361325,0.03083 0.720041,0.05349 1.074219,0.07031 1.016159,0.04706 2.030358,0.04747 3.039062,0.01563 l -0.0625,-1.998047 c -0.964751,0.03045 -1.926444,0.02866 -2.882812,-0.01563 -0.337132,-0.01601 -0.669753,-0.03644 -0.998047,-0.06445 z"/>
<path fill="#11446e"
   d="M 23.193611,38.235139 35.3025,40.336874 24.671945,46.504028 c 1.636657,-2.777897 1.021301,-6.219823 -1.478334,-8.268889 z"/>
</svg>
